PathFileType	4	(X/Y/Z)	T00_Trial_0-100.trc
DataRate	CameraRate	NumFrames	NumMarkers	Units	OrigDataRate	OrigDataStartFrame	OrigNumFrames
60	60	7	22	m	60	25	100
Frame#	Time	Hip			RHip			RKnee			RAnkle			RBigToe			RSmallToe			RHeel			LHip			LKnee			LAnkle			LBigToe			LSmallToe			LHeel			Neck			Head			Nose			RShoulder			RElbow			RWrist			LShoulder			LElbow			LWrist		
		X1	Y1	Z1	X2	Y2	Z2	X3	Y3	Z3	X4	Y4	Z4	X5	Y5	Z5	X6	Y6	Z6	X7	Y7	Z7	X8	Y8	Z8	X9	Y9	Z9	X10	Y10	Z10	X11	Y11	Z11	X12	Y12	Z12	X13	Y13	Z13	X14	Y14	Z14	X15	Y15	Z15	X16	Y16	Z16	X17	Y17	Z17	X18	Y18	Z18	X19	Y19	Z19	X20	Y20	Z20	X21	Y21	Z21	X22	Y22	Z22
25	0.4166666666666667	-0.06733854088333725	0.9199808789375135	-1.1825570257901357	-0.16307858958864266	0.948980661736494	-1.2100533903970887	-0.37150877869434673	0.5915271056685679	-1.0897244086666373	-0.2737291838966389	0.209689682399129	-1.3033331179570147	-0.35822835798902497	0.12060646216754438	-1.1614731925034913	-0.3824680986626143	0.14260253299675976	-1.2352361843139827	-0.24726514263310748	0.16261566803724012	-1.3501854736843544	0.012064597717752798	0.8869715092135297	-1.1589553166804063	-0.05936096334774274	0.4984901944890051	-1.0251869462856333	-0.016923031479103002	0.15412807074688667	-1.1532473832274355	-0.04199875436098103	0.08809006558476826	-0.9783517951837812	0.015160263332273077	0.0767677795036187	-1.0200985825642788	-0.0020065875109938117	0.10601866116437175	-1.1958114359624858	0.17414304559561689	1.4108223014199321	-1.1619006419529496	0.2602168377234748	1.6250994323253711	-0.9769934302551654	0.18057892127193742	1.4757525316067759	-0.9858628708269247	-0.005805369467150093	1.4328943620966026	-1.2704626894077313	-0.24322435739663212	1.3831601027275031	-1.2812386228210495	-0.3522802364756102	1.4567117036516044	-1.0727061478739333	0.3032702027743397	1.2643872870300494	-1.172134023824168	0.3364821711764024	0.9782778702952039	-1.15947421403806	0.33053050609678164	0.726809218473433	-1.0996727928718406
26	0.4333333333333333	-0.06932297813406767	0.9206282761330863	-1.174084407939606	-0.1671333020594674	0.9508666044565373	-1.1975778729912687	-0.3866385058648939	0.5998390395843965	-1.076832864881123	-0.3111537588008946	0.20947234089620967	-1.283527073551887	-0.40081232081985796	0.12616035296992062	-1.1290265203936507	-0.4276964585689484	0.14885398566603575	-1.2053133795656952	-0.2808338449733648	0.1572682121626195	-1.3338700665040606	0.012568418620574708	0.8846417938475399	-1.1497734813190748	-0.06015982609489933	0.4958672663085066	-1.0188492713109663	-0.016541265344909142	0.15285798388367872	-1.1535915199960538	-0.043329774550108856	0.08699161556864111	-0.9790828480044577	0.01385991690341712	0.07648933508193388	-1.0194093706256155	-0.002799223313482161	0.10587841231201445	-1.1968251938824699	0.18081241352318267	1.4053340274832329	-1.1527476192218493	0.270943995309756	1.6177024738767234	-0.9701059907761947	0.19071783337122764	1.4689132795595894	-0.9762158380894694	0.00012113130003689706	1.4306505046360487	-1.261931786529245	-0.23946390299544898	1.3887334261644368	-1.2765933165057288	-0.34320922061790593	1.46962292260613	-1.0656768378969625	0.3074074710763796	1.2567378712058423	-1.163593815581892	0.33729935701590896	0.9727983316046452	-1.1502239352615382	0.3280978795284746	0.7212378941801153	-1.0864754151293388
27	0.45	-0.07191380552700634	0.92102644615985	-1.1645897087355557	-0.17165667383612906	0.9523565820745021	-1.183499010342489	-0.40042561701987617	0.6081055048146932	-1.0646338890461151	-0.35200459819685026	0.21557625392148513	-1.2604041417402998	-0.44100041364130593	0.13175567998362386	-1.1011421379346575	-0.46862240834837315	0.153876710467169	-1.1794564295115693	-0.317480205653371	0.1583383026085133	-1.3129781146368875	0.01099818988812137	0.8805043756932056	-1.1439529553234347	-0.06091029520618266	0.4934106994194734	-1.0120080614379594	-0.016186223598032165	0.15161216572202021	-1.1533192725478418	-0.04346136034491464	0.08601149777347517	-0.9802889622363732	0.013661066049865991	0.07623355948796753	-1.0203693795645246	-0.003704735154777089	0.10571791502490123	-1.1973467563593483	0.1869781679208559	1.3995545123940194	-1.1440636261609625	0.28090999608295447	1.6104653969772622	-0.9649104506849294	0.20015183962030483	1.4618892197507312	-0.9663759171218526	0.005698602106400693	1.4283674536356885	-1.252270010303116	-0.23567155466976453	1.3932881894527114	-1.2705482898531155	-0.3345760256128038	1.4822224332613618	-1.0590451767635851	0.3114018925545478	1.2490297259783991	-1.1556114096619272	0.33832201838326476	0.9668222114908637	-1.1417130369649922	0.3258033006876671	0.7154635417016126	-1.073800586831762
28	0.4666666666666667	-0.0750330077466272	0.9212121063393477	-1.1543601595554493	-0.17625586530519785	0.9535564257652916	-1.1690724441917588	-0.4128304328532976	0.6164094300426896	-1.0529958120769722	-0.39529964879054424	0.22706805167046604	-1.2351323168781172	-0.4787354422803611	0.13817649941570956	-1.0774144452709535	-0.5058189720488024	0.15901437712854924	-1.1568620408298549	-0.35653185717146024	0.16405620119054695	-1.2896430900538294	0.007554503641686053	0.8754211723505668	-1.140111258809398	-0.06189905922044818	0.49120576892256435	-1.00477559446979	-0.016168319353905655	0.1502660048597659	-1.1525444306687074	-0.04206869743324409	0.08486169890008984	-0.9823608092089154	0.014161894922627462	0.07592094284776552	-1.0224516805374468	-0.004893605863193926	0.105106133148606	-1.1972858593880802	0.19266221255709912	1.3936147642071988	-1.1360181595780443	0.28975941866538735	1.603621865975656	-0.9615760516241856	0.2082597081981326	1.454765889121514	-0.9565120804470826	0.011057753892502294	1.425997029082042	-1.2423896157975154	-0.23144045206784697	1.3970021650633417	-1.2628313723996314	-0.3268590456989388	1.4947547072381653	-1.0540389887384123	0.31515055129616554	1.2413071646402314	-1.1482975556518733	0.3395188477602185	0.960150102715109	-1.1336958411470983	0.32370017254917227	0.7092395461484748	-1.061747172662238
29	0.4833333333333333	-0.0784759269013724	0.9212910640591634	-1.1438422901155394	-0.18063810933305038	0.954535018506485	-1.155183714746331	-0.42381018979955126	0.6247529640588981	-1.0418428129756785	-0.43873444072030054	0.24173969669338655	-1.209269323087965	-0.5143824444149419	0.14664542378483703	-1.056758029864096	-0.5404014013369121	0.1659708411436704	-1.1362510936882553	-0.3974188239461606	0.17340238392108578	-1.2650959802630442	0.002876699741871994	0.8704944366062694	-1.1363089418262131	-0.0631653182875903	0.48933933707270283	-0.9974356986055244	-0.01660716378160678	0.1490278635157648	-1.1514759886653374	-0.03953241561291878	0.08342645525863625	-0.9851179207620313	0.015042565721327818	0.07555276336094818	-1.0250048183484186	-0.006294813891927681	0.10409578225562001	-1.196835133864456	0.19795233321345332	1.3876797500357512	-1.1287725230104086	0.2976626677864783	1.5972399591351523	-0.9597311484891355	0.2153426914749238	1.4474507173737987	-0.947312271898992	0.0162258326351704	1.4235161749869212	-1.2330046349892883	-0.22679058688384013	1.4002917602200184	-1.2539468435458216	-0.32042442836418755	1.5072276245231304	-1.050878213811781	0.3185538636952993	1.2336154948928977	-1.1418514243816433	0.3407848708366893	0.9528833909226049	-1.1260938170397654	0.32194213821249773	0.7025109446883165	-1.0505235835043705
30	0.5	-0.08199119568940653	0.9213595669744058	-1.1336196711265736	-0.18502878759615624	0.955415328765933	-1.1417376469970255	-0.43353265524397877	0.6329929925175741	-1.0312796379276288	-0.47936521209858873	0.2568996078547044	-1.1844316606538174	-0.5481571932859267	0.1579562943676872	-1.0379473122685496	-0.5731168349055136	0.17583892716046678	-1.1164372092934156	-0.43925816290790337	0.1861177525692337	-1.2398520321474924	-0.0022543880463664415	0.8664290354061234	-1.131362984047306	-0.06444948607251194	0.4878327031378761	-0.990427729308125	-0.01741707300914879	0.14825912839328637	-1.150468467524178	-0.036598440942748174	0.08192813048578684	-0.9880030071589815	0.016106481053109523	0.07526809600751537	-1.0274311523028783	-0.007672710502085121	0.1031612442791691	-1.196523059527366	0.20299102171443292	1.3818601105173673	-1.122370068057638	0.30524135169783695	1.5912131507510978	-0.9586812570397957	0.22242494171535138	1.4397260605559652	-0.9399583332009565	0.021181775884206486	1.4209668146202947	-1.2243714896581794	-0.22188579119783056	1.4035973698841269	-1.2448352913975707	-0.3151331750030312	1.5193208653520829	-1.048858289413282	0.3215712662043322	1.2260117410808322	-1.136364116406042	0.34194864404306813	0.9452571006849564	-1.1189091138337333	0.32074021667833585	0.6954122189758032	-1.0404382838780686
31	0.5166666666666667	-0.08538039711196631	0.9215126510976678	-1.124172363727578	-0.18952184585892265	0.9563360580787502	-1.1290208732394107	-0.4423497379457527	0.6408699545373839	-1.0216528950495662	-0.5151083392099459	0.2706948568813052	-1.1618283600058743	-0.5798570778512746	0.1718560743304277	-1.0198869723769692	-0.6040520742561192	0.1885528768739138	-1.0965752225704097	-0.48056448449184624	0.20178642628767282	-1.214545232402302	-0.00715873347808481	0.8633628753185196	-1.1251936030876963	-0.06534100312708525	0.4866377173504038	-0.9840574233546971	-0.018427615344901914	0.14821576825364977	-1.1497839288118659	-0.03403686642932416	0.0807768837191857	-0.99039474652856	0.017048230258203755	0.07526392969582074	-1.0291700737411107	-0.008776335782201538	0.10282456918932538	-1.1968242911680345	0.20787076273050764	1.3761963997017448	-1.116640319439565	0.3130785076780437	1.585260501752637	-0.958135290458848	0.2305678878639167	1.4313489267747324	-0.9357705009344978	0.02596130530848937	1.4185105716496782	-1.2162186631825536	-0.2168152485549544	1.4072034322898617	-1.2361430530401467	-0.3102519833875561	1.5306015716760724	-1.046721923291215	0.3241727666607427	1.2185622203375621	-1.1316478304447262	0.34285731503004185	0.9375316865262102	-1.1121957526302568	0.3202784213147703	0.6881633769826766	-1.0317718308616497
